REM GoldWave
FILE "Зазнобин В.М. 2011 06 06   Встреча с учёными ИФСиП НАН Азербайджана ч 2 из 2.m4a" BINARY
  TRACK 01 AUDIO
    TITLE "00:00:00.00000"
    PERFORMER "Внутренний Предиктор СССР"
    INDEX 01 00:00:00
  TRACK 02 AUDIO
    TITLE "00:00:12.35991"
    PERFORMER "Внутренний Предиктор СССР"
    INDEX 01 00:12:27
  TRACK 03 AUDIO
    TITLE "00:00:28.06349"
    PERFORMER "Внутренний Предиктор СССР"
    INDEX 01 00:28:05
  TRACK 04 AUDIO
    TITLE "00:00:43.14014"
    PERFORMER "Внутренний Предиктор СССР"
    INDEX 01 00:43:11
  TRACK 05 AUDIO
    TITLE "00:01:00.16726"
    PERFORMER "Внутренний Предиктор СССР"
    INDEX 01 01:00:13
  TRACK 06 AUDIO
    TITLE "00:01:17.49624"
    PERFORMER "Внутренний Предиктор СССР"
    INDEX 01 01:17:37
  TRACK 07 AUDIO
    TITLE "00:01:30.69206"
    PERFORMER "Внутренний Предиктор СССР"
    INDEX 01 01:30:52
  TRACK 08 AUDIO
    TITLE "00:01:44.85152"
    PERFORMER "Внутренний Предиктор СССР"
    INDEX 01 01:44:64
  TRACK 09 AUDIO
    TITLE "00:01:57.87320"
    PERFORMER "Внутренний Предиктор СССР"
    INDEX 01 01:57:65
  TRACK 10 AUDIO
    TITLE "00:02:10.38404"
    PERFORMER "Внутренний Предиктор СССР"
    INDEX 01 02:10:29
  TRACK 11 AUDIO
    TITLE "00:02:23.35927"
    PERFORMER "Внутренний Предиктор СССР"
    INDEX 01 02:23:27
  TRACK 12 AUDIO
    TITLE "00:02:36.81052"
    PERFORMER "Внутренний Предиктор СССР"
    INDEX 01 02:36:61
  TRACK 13 AUDIO
    TITLE "00:02:50.07601"
    PERFORMER "Внутренний Предиктор СССР"
    INDEX 01 02:50:06
  TRACK 14 AUDIO
    TITLE "00:03:03.43438"
    PERFORMER "Внутренний Предиктор СССР"
    INDEX 01 03:03:33
  TRACK 15 AUDIO
    TITLE "00:03:20.83302"
    PERFORMER "Внутренний Предиктор СССР"
    INDEX 01 03:20:62
  TRACK 16 AUDIO
    TITLE "00:03:34.31909"
    PERFORMER "Внутренний Предиктор СССР"
    INDEX 01 03:34:24
  TRACK 17 AUDIO
    TITLE "00:03:47.28272"
    PERFORMER "Внутренний Предиктор СССР"
    INDEX 01 03:47:21
  TRACK 18 AUDIO
    TITLE "00:04:00.37406"
    PERFORMER "Внутренний Предиктор СССР"
    INDEX 01 04:00:28
  TRACK 19 AUDIO
    TITLE "00:04:14.53351"
    PERFORMER "Внутренний Предиктор СССР"
    INDEX 01 04:14:40
  TRACK 20 AUDIO
    TITLE "00:04:29.36635"
    PERFORMER "Внутренний Предиктор СССР"
    INDEX 01 04:29:27
  TRACK 21 AUDIO
    TITLE "00:04:46.28898"
    PERFORMER "Внутренний Предиктор СССР"
    INDEX 01 04:46:22
  TRACK 22 AUDIO
    TITLE "00:05:01.13342"
    PERFORMER "Внутренний Предиктор СССР"
    INDEX 01 05:01:10
  TRACK 23 AUDIO
    TITLE "00:05:18.39274"
    PERFORMER "Внутренний Предиктор СССР"
    INDEX 01 05:18:29
  TRACK 24 AUDIO
    TITLE "00:05:34.79293"
    PERFORMER "Внутренний Предиктор СССР"
    INDEX 01 05:34:59
  TRACK 25 AUDIO
    TITLE "00:05:53.19002"
    PERFORMER "Внутренний Предиктор СССР"
    INDEX 01 05:53:14
  TRACK 26 AUDIO
    TITLE "00:06:10.82086"
    PERFORMER "Внутренний Предиктор СССР"
    INDEX 01 06:10:62
  TRACK 27 AUDIO
    TITLE "00:06:25.27057"
    PERFORMER "Внутренний Предиктор СССР"
    INDEX 01 06:25:20
  TRACK 28 AUDIO
    TITLE "00:06:43.21488"
    PERFORMER "Внутренний Предиктор СССР"
    INDEX 01 06:43:16
  TRACK 29 AUDIO
    TITLE "00:06:56.09723"
    PERFORMER "Внутренний Предиктор СССР"
    INDEX 01 06:56:07
  TRACK 30 AUDIO
    TITLE "00:07:15.75982"
    PERFORMER "Внутренний Предиктор СССР"
    INDEX 01 07:15:57
  TRACK 31 AUDIO
    TITLE "00:07:33.32100"
    PERFORMER "Внутренний Предиктор СССР"
    INDEX 01 07:33:24
  TRACK 32 AUDIO
    TITLE "00:07:50.62676"
    PERFORMER "Внутренний Предиктор СССР"
    INDEX 01 07:50:47
  TRACK 33 AUDIO
    TITLE "00:08:03.33497"
    PERFORMER "Внутренний Предиктор СССР"
    INDEX 01 08:03:25
  TRACK 34 AUDIO
    TITLE "00:08:16.05478"
    PERFORMER "Внутренний Предиктор СССР"
    INDEX 01 08:16:04
  TRACK 35 AUDIO
    TITLE "00:08:28.67011"
    PERFORMER "Внутренний Предиктор СССР"
    INDEX 01 08:28:50
  TRACK 36 AUDIO
    TITLE "00:08:42.96889"
    PERFORMER "Внутренний Предиктор СССР"
    INDEX 01 08:42:73
  TRACK 37 AUDIO
    TITLE "00:08:56.61751"
    PERFORMER "Внутренний Предиктор СССР"
    INDEX 01 08:56:46
  TRACK 38 AUDIO
    TITLE "00:09:15.14231"
    PERFORMER "Внутренний Предиктор СССР"
    INDEX 01 09:15:11
  TRACK 39 AUDIO
    TITLE "00:09:28.19882"
    PERFORMER "Внутренний Предиктор СССР"
    INDEX 01 09:28:15
  TRACK 40 AUDIO
    TITLE "00:09:41.25533"
    PERFORMER "Внутренний Предиктор СССР"
    INDEX 01 09:41:19
  TRACK 41 AUDIO
    TITLE "00:09:57.81805"
    PERFORMER "Внутренний Предиктор СССР"
    INDEX 01 09:57:61
  TRACK 42 AUDIO
    TITLE "00:10:12.47673"
    PERFORMER "Внутренний Предиктор СССР"
    INDEX 01 10:12:36
  TRACK 43 AUDIO
    TITLE "00:10:28.72599"
    PERFORMER "Внутренний Предиктор СССР"
    INDEX 01 10:28:54
  TRACK 44 AUDIO
    TITLE "00:10:41.26005"
    PERFORMER "Внутренний Предиктор СССР"
    INDEX 01 10:41:20
  TRACK 45 AUDIO
    TITLE "00:10:54.73451"
    PERFORMER "Внутренний Предиктор СССР"
    INDEX 01 10:54:55
  TRACK 46 AUDIO
    TITLE "00:11:10.25234"
    PERFORMER "Внутренний Предиктор СССР"
    INDEX 01 11:10:19
  TRACK 47 AUDIO
    TITLE "00:11:24.51628"
    PERFORMER "Внутренний Предиктор СССР"
    INDEX 01 11:24:39
  TRACK 48 AUDIO
    TITLE "00:11:37.93270"
    PERFORMER "Внутренний Предиктор СССР"
    INDEX 01 11:37:70
  TRACK 49 AUDIO
    TITLE "00:11:52.87002"
    PERFORMER "Внутренний Предиктор СССР"
    INDEX 01 11:52:65
  TRACK 50 AUDIO
    TITLE "00:12:06.68118"
    PERFORMER "Внутренний Предиктор СССР"
    INDEX 01 12:06:51
  TRACK 51 AUDIO
    TITLE "00:12:19.54032"
    PERFORMER "Внутренний Предиктор СССР"
    INDEX 01 12:19:41
  TRACK 52 AUDIO
    TITLE "00:12:35.47610"
    PERFORMER "Внутренний Предиктор СССР"
    INDEX 01 12:35:36
  TRACK 53 AUDIO
    TITLE "00:12:51.65569"
    PERFORMER "Внутренний Предиктор СССР"
    INDEX 01 12:51:49
  TRACK 54 AUDIO
    TITLE "00:13:05.38558"
    PERFORMER "Внутренний Предиктор СССР"
    INDEX 01 13:05:29
  TRACK 55 AUDIO
    TITLE "00:13:18.87166"
    PERFORMER "Внутренний Предиктор СССР"
    INDEX 01 13:18:65
  TRACK 56 AUDIO
    TITLE "00:13:33.44907"
    PERFORMER "Внутренний Предиктор СССР"
    INDEX 01 13:33:34
  TRACK 57 AUDIO
    TITLE "00:13:46.92354"
    PERFORMER "Внутренний Предиктор СССР"
    INDEX 01 13:46:69
  TRACK 58 AUDIO
    TITLE "00:14:00.60698"
    PERFORMER "Внутренний Предиктор СССР"
    INDEX 01 14:00:46
  TRACK 59 AUDIO
    TITLE "00:14:14.02340"
    PERFORMER "Внутренний Предиктор СССР"
    INDEX 01 14:14:02
  TRACK 60 AUDIO
    TITLE "00:14:28.28735"
    PERFORMER "Внутренний Предиктор СССР"
    INDEX 01 14:28:22
  TRACK 61 AUDIO
    TITLE "00:14:50.43447"
    PERFORMER "Внутренний Предиктор СССР"
    INDEX 01 14:50:33
  TRACK 62 AUDIO
    TITLE "00:15:04.67519"
    PERFORMER "Внутренний Предиктор СССР"
    INDEX 01 15:04:51
  TRACK 63 AUDIO
    TITLE "00:15:19.47320"
    PERFORMER "Внутренний Предиктор СССР"
    INDEX 01 15:19:35
  TRACK 64 AUDIO
    TITLE "00:15:33.07537"
    PERFORMER "Внутренний Предиктор СССР"
    INDEX 01 15:33:06
  TRACK 65 AUDIO
    TITLE "00:15:46.71238"
    PERFORMER "Внутренний Предиктор СССР"
    INDEX 01 15:46:53
  TRACK 66 AUDIO
    TITLE "00:16:07.22249"
    PERFORMER "Внутренний Предиктор СССР"
    INDEX 01 16:07:17
  TRACK 67 AUDIO
    TITLE "00:16:20.18612"
    PERFORMER "Внутренний Предиктор СССР"
    INDEX 01 16:20:14
  TRACK 68 AUDIO
    TITLE "00:16:33.01043"
    PERFORMER "Внутренний Предиктор СССР"
    INDEX 01 16:33:01
  TRACK 69 AUDIO
    TITLE "00:16:50.61805"
    PERFORMER "Внутренний Предиктор СССР"
    INDEX 01 16:50:46
  TRACK 70 AUDIO
    TITLE "00:17:06.04299"
    PERFORMER "Внутренний Предиктор СССР"
    INDEX 01 17:06:03
  TRACK 71 AUDIO
    TITLE "00:17:21.06159"
    PERFORMER "Внутренний Предиктор СССР"
    INDEX 01 17:21:05
  TRACK 72 AUDIO
    TITLE "00:17:34.32707"
    PERFORMER "Внутренний Предиктор СССР"
    INDEX 01 17:34:25
  TRACK 73 AUDIO
    TITLE "00:17:49.36889"
    PERFORMER "Внутренний Предиктор СССР"
    INDEX 01 17:49:28
  TRACK 74 AUDIO
    TITLE "00:18:03.08717"
    PERFORMER "Внутренний Предиктор СССР"
    INDEX 01 18:03:07
  TRACK 75 AUDIO
    TITLE "00:18:15.91147"
    PERFORMER "Внутренний Предиктор СССР"
    INDEX 01 18:15:68
  TRACK 76 AUDIO
    TITLE "00:18:31.83565"
    PERFORMER "Внутренний Предиктор СССР"
    INDEX 01 18:31:63
  TRACK 77 AUDIO
    TITLE "00:18:51.40535"
    PERFORMER "Внутренний Предиктор СССР"
    INDEX 01 18:51:30
  TRACK 78 AUDIO
    TITLE "00:19:05.75057"
    PERFORMER "Внутренний Предиктор СССР"
    INDEX 01 19:05:56
  TRACK 79 AUDIO
    TITLE "00:19:25.51764"
    PERFORMER "Внутренний Предиктор СССР"
    INDEX 01 19:25:39
  TRACK 80 AUDIO
    TITLE "00:19:38.49288"
    PERFORMER "Внутренний Предиктор СССР"
    INDEX 01 19:38:37
  TRACK 81 AUDIO
    TITLE "00:19:51.73515"
    PERFORMER "Внутренний Предиктор СССР"
    INDEX 01 19:51:55
  TRACK 82 AUDIO
    TITLE "00:20:04.53624"
    PERFORMER "Внутренний Предиктор СССР"
    INDEX 01 20:04:40
  TRACK 83 AUDIO
    TITLE "00:20:18.53315"
    PERFORMER "Внутренний Предиктор СССР"
    INDEX 01 20:18:40
  TRACK 84 AUDIO
    TITLE "00:20:31.26458"
    PERFORMER "Внутренний Предиктор СССР"
    INDEX 01 20:31:20
  TRACK 85 AUDIO
    TITLE "00:20:44.84354"
    PERFORMER "Внутренний Предиктор СССР"
    INDEX 01 20:44:63
  TRACK 86 AUDIO
    TITLE "00:21:00.41941"
    PERFORMER "Внутренний Предиктор СССР"
    INDEX 01 21:00:31
  TRACK 87 AUDIO
    TITLE "00:21:15.14776"
    PERFORMER "Внутренний Предиктор СССР"
    INDEX 01 21:15:11
  TRACK 88 AUDIO
    TITLE "00:21:32.15166"
    PERFORMER "Внутренний Предиктор СССР"
    INDEX 01 21:32:11
  TRACK 89 AUDIO
    TITLE "00:21:46.53170"
    PERFORMER "Внутренний Предиктор СССР"
    INDEX 01 21:46:40
  TRACK 90 AUDIO
    TITLE "00:22:01.12073"
    PERFORMER "Внутренний Предиктор СССР"
    INDEX 01 22:01:09
  TRACK 91 AUDIO
    TITLE "00:22:23.85995"
    PERFORMER "Внутренний Предиктор СССР"
    INDEX 01 22:23:64
  TRACK 92 AUDIO
    TITLE "00:22:42.26866"
    PERFORMER "Внутренний Предиктор СССР"
    INDEX 01 22:42:20
  TRACK 93 AUDIO
    TITLE "00:22:54.96526"
    PERFORMER "Внутренний Предиктор СССР"
    INDEX 01 22:54:72
  TRACK 94 AUDIO
    TITLE "00:23:08.42812"
    PERFORMER "Внутренний Предиктор СССР"
    INDEX 01 23:08:32
  TRACK 95 AUDIO
    TITLE "00:23:21.28726"
    PERFORMER "Внутренний Предиктор СССР"
    INDEX 01 23:21:22
  TRACK 96 AUDIO
    TITLE "00:23:40.25324"
    PERFORMER "Внутренний Предиктор СССР"
    INDEX 01 23:40:19
  TRACK 97 AUDIO
    TITLE "00:23:52.71764"
    PERFORMER "Внутренний Предиктор СССР"
    INDEX 01 23:52:54
  TRACK 98 AUDIO
    TITLE "00:24:05.47229"
    PERFORMER "Внутренний Предиктор СССР"
    INDEX 01 24:05:35
  TRACK 99 AUDIO
    TITLE "00:24:21.72154"
    PERFORMER "Внутренний Предиктор СССР"
    INDEX 01 24:21:54
  TRACK 100 AUDIO
    TITLE "00:24:37.75020"
    PERFORMER "Внутренний Предиктор СССР"
    INDEX 01 24:37:56
  TRACK 101 AUDIO
    TITLE "00:24:54.03429"
    PERFORMER "Внутренний Предиктор СССР"
    INDEX 01 24:54:03
  TRACK 102 AUDIO
    TITLE "00:25:09.73787"
    PERFORMER "Внутренний Предиктор СССР"
    INDEX 01 25:09:55
  TRACK 103 AUDIO
    TITLE "00:25:23.18912"
    PERFORMER "Внутренний Предиктор СССР"
    INDEX 01 25:23:14
  TRACK 104 AUDIO
    TITLE "00:25:37.41823"
    PERFORMER "Внутренний Предиктор СССР"
    INDEX 01 25:37:31
  TRACK 105 AUDIO
    TITLE "00:25:50.03356"
    PERFORMER "Внутренний Предиктор СССР"
    INDEX 01 25:50:03
  TRACK 106 AUDIO
    TITLE "00:26:03.57769"
    PERFORMER "Внутренний Предиктор СССР"
    INDEX 01 26:03:43
  TRACK 107 AUDIO
    TITLE "00:26:20.23329"
    PERFORMER "Внутренний Предиктор СССР"
    INDEX 01 26:20:17
  TRACK 108 AUDIO
    TITLE "00:26:33.35946"
    PERFORMER "Внутренний Предиктор СССР"
    INDEX 01 26:33:27
  TRACK 109 AUDIO
    TITLE "00:26:46.49723"
    PERFORMER "Внутренний Предиктор СССР"
    INDEX 01 26:46:37
  TRACK 110 AUDIO
    TITLE "00:26:59.34476"
    PERFORMER "Внутренний Предиктор СССР"
    INDEX 01 26:59:26
  TRACK 111 AUDIO
    TITLE "00:27:12.13424"
    PERFORMER "Внутренний Предиктор СССР"
    INDEX 01 27:12:10
  TRACK 112 AUDIO
    TITLE "00:27:25.39973"
    PERFORMER "Внутренний Предиктор СССР"
    INDEX 01 27:25:30
  TRACK 113 AUDIO
    TITLE "00:27:38.59556"
    PERFORMER "Внутренний Предиктор СССР"
    INDEX 01 27:38:45
  TRACK 114 AUDIO
    TITLE "00:27:51.43147"
    PERFORMER "Внутренний Предиктор СССР"
    INDEX 01 27:51:32
  TRACK 115 AUDIO
    TITLE "00:28:08.51664"
    PERFORMER "Внутренний Предиктор СССР"
    INDEX 01 28:08:39
  TRACK 116 AUDIO
    TITLE "00:28:22.62966"
    PERFORMER "Внутренний Предиктор СССР"
    INDEX 01 28:22:47
  TRACK 117 AUDIO
    TITLE "00:28:36.05769"
    PERFORMER "Внутренний Предиктор СССР"
    INDEX 01 28:36:04
  TRACK 118 AUDIO
    TITLE "00:28:51.51746"
    PERFORMER "Внутренний Предиктор СССР"
    INDEX 01 28:51:39
  TRACK 119 AUDIO
    TITLE "00:29:06.74503"
    PERFORMER "Внутренний Предиктор СССР"
    INDEX 01 29:06:56
  TRACK 120 AUDIO
    TITLE "00:29:24.84027"
    PERFORMER "Внутренний Предиктор СССР"
    INDEX 01 29:24:63
  TRACK 121 AUDIO
    TITLE "00:29:37.90839"
    PERFORMER "Внутренний Предиктор СССР"
    INDEX 01 29:37:68
  TRACK 122 AUDIO
    TITLE "00:29:50.63982"
    PERFORMER "Внутренний Предиктор СССР"
    INDEX 01 29:50:48
  TRACK 123 AUDIO
    TITLE "00:30:07.05161"
    PERFORMER "Внутренний Предиктор СССР"
    INDEX 01 30:07:04
  TRACK 124 AUDIO
    TITLE "00:30:20.86277"
    PERFORMER "Внутренний Предиктор СССР"
    INDEX 01 30:20:65
  TRACK 125 AUDIO
    TITLE "00:30:38.28463"
    PERFORMER "Внутренний Предиктор СССР"
    INDEX 01 30:38:21
  TRACK 126 AUDIO
    TITLE "00:30:54.61515"
    PERFORMER "Внутренний Предиктор СССР"
    INDEX 01 30:54:46
  TRACK 127 AUDIO
    TITLE "00:31:12.93098"
    PERFORMER "Внутренний Предиктор СССР"
    INDEX 01 31:12:70
  TRACK 128 AUDIO
    TITLE "00:31:32.81415"
    PERFORMER "Внутренний Предиктор СССР"
    INDEX 01 31:32:61
  TRACK 129 AUDIO
    TITLE "00:31:45.80100"
    PERFORMER "Внутренний Предиктор СССР"
    INDEX 01 31:45:60
  TRACK 130 AUDIO
    TITLE "00:31:59.51927"
    PERFORMER "Внутренний Предиктор СССР"
    INDEX 01 31:59:39
  TRACK 131 AUDIO
    TITLE "00:32:14.80490"
    PERFORMER "Внутренний Предиктор СССР"
    INDEX 01 32:14:60
  TRACK 132 AUDIO
    TITLE "00:32:28.00073"
    PERFORMER "Внутренний Предиктор СССР"
    INDEX 01 32:28:00
  TRACK 133 AUDIO
    TITLE "00:32:41.41714"
    PERFORMER "Внутренний Предиктор СССР"
    INDEX 01 32:41:31
  TRACK 134 AUDIO
    TITLE "00:32:57.57351"
    PERFORMER "Внутренний Предиктор СССР"
    INDEX 01 32:57:43
  TRACK 135 AUDIO
    TITLE "00:33:19.07048"
    PERFORMER "Внутренний Предиктор СССР"
    INDEX 01 33:19:05
  TRACK 136 AUDIO
    TITLE "00:33:32.73070"
    PERFORMER "Внутренний Предиктор СССР"
    INDEX 01 33:32:55
  TRACK 137 AUDIO
    TITLE "00:33:45.86848"
    PERFORMER "Внутренний Предиктор СССР"
    INDEX 01 33:45:65
  TRACK 138 AUDIO
    TITLE "00:34:02.39637"
    PERFORMER "Внутренний Предиктор СССР"
    INDEX 01 34:02:30
  TRACK 139 AUDIO
    TITLE "00:34:19.28417"
    PERFORMER "Внутренний Предиктор СССР"
    INDEX 01 34:19:21
  TRACK 140 AUDIO
    TITLE "00:34:34.03574"
    PERFORMER "Внутренний Предиктор СССР"
    INDEX 01 34:34:03
  TRACK 141 AUDIO
    TITLE "00:34:49.83220"
    PERFORMER "Внутренний Предиктор СССР"
    INDEX 01 34:49:62
  TRACK 142 AUDIO
    TITLE "00:35:07.39338"
    PERFORMER "Внутренний Предиктор СССР"
    INDEX 01 35:07:30
  TRACK 143 AUDIO
    TITLE "00:35:20.25252"
    PERFORMER "Внутренний Предиктор СССР"
    INDEX 01 35:20:19
  TRACK 144 AUDIO
    TITLE "00:35:34.53968"
    PERFORMER "Внутренний Предиктор СССР"
    INDEX 01 35:34:40
  TRACK 145 AUDIO
    TITLE "00:35:49.40735"
    PERFORMER "Внутренний Предиктор СССР"
    INDEX 01 35:49:31
  TRACK 146 AUDIO
    TITLE "00:36:06.64345"
    PERFORMER "Внутренний Предиктор СССР"
    INDEX 01 36:06:48
  TRACK 147 AUDIO
    TITLE "00:36:21.63882"
    PERFORMER "Внутренний Предиктор СССР"
    INDEX 01 36:21:48
  TRACK 148 AUDIO
    TITLE "00:36:37.45850"
    PERFORMER "Внутренний Предиктор СССР"
    INDEX 01 36:37:34
  TRACK 149 AUDIO
    TITLE "00:36:51.97787"
    PERFORMER "Внутренний Предиктор СССР"
    INDEX 01 36:51:73
  TRACK 150 AUDIO
    TITLE "00:37:14.83320"
    PERFORMER "Внутренний Предиктор СССР"
    INDEX 01 37:14:62
  TRACK 151 AUDIO
    TITLE "00:37:30.50195"
    PERFORMER "Внутренний Предиктор СССР"
    INDEX 01 37:30:38
  TRACK 152 AUDIO
    TITLE "00:37:42.97796"
    PERFORMER "Внутренний Предиктор СССР"
    INDEX 01 37:42:73
  TRACK 153 AUDIO
    TITLE "00:37:56.49887"
    PERFORMER "Внутренний Предиктор СССР"
    INDEX 01 37:56:37
  TRACK 154 AUDIO
    TITLE "00:38:12.89905"
    PERFORMER "Внутренний Предиктор СССР"
    INDEX 01 38:12:67
  TRACK 155 AUDIO
    TITLE "00:38:26.93079"
    PERFORMER "Внутренний Предиктор СССР"
    INDEX 01 38:26:70
  TRACK 156 AUDIO
    TITLE "00:38:43.79537"
    PERFORMER "Внутренний Предиктор СССР"
    INDEX 01 38:43:60
  TRACK 157 AUDIO
    TITLE "00:38:58.16381"
    PERFORMER "Внутренний Предиктор СССР"
    INDEX 01 38:58:12
  TRACK 158 AUDIO
    TITLE "00:39:11.77760"
    PERFORMER "Внутренний Предиктор СССР"
    INDEX 01 39:11:58
  TRACK 159 AUDIO
    TITLE "00:39:26.63365"
    PERFORMER "Внутренний Предиктор СССР"
    INDEX 01 39:26:48
  TRACK 160 AUDIO
    TITLE "00:39:40.07329"
    PERFORMER "Внутренний Предиктор СССР"
    INDEX 01 39:40:05
  TRACK 161 AUDIO
    TITLE "00:39:52.78150"
    PERFORMER "Внутренний Предиктор СССР"
    INDEX 01 39:52:59
  TRACK 162 AUDIO
    TITLE "00:40:07.03383"
    PERFORMER "Внутренний Предиктор СССР"
    INDEX 01 40:07:03
  TRACK 163 AUDIO
    TITLE "00:40:19.55628"
    PERFORMER "Внутренний Предиктор СССР"
    INDEX 01 40:19:42
  TRACK 164 AUDIO
    TITLE "00:40:32.70567"
    PERFORMER "Внутренний Предиктор СССР"
    INDEX 01 40:32:53
  TRACK 165 AUDIO
    TITLE "00:40:50.67320"
    PERFORMER "Внутренний Предиктор СССР"
    INDEX 01 40:50:50
  TRACK 166 AUDIO
    TITLE "00:41:26.91483"
    PERFORMER "Внутренний Предиктор СССР"
    INDEX 01 41:26:69
  TRACK 167 AUDIO
    TITLE "00:41:40.18032"
    PERFORMER "Внутренний Предиктор СССР"
    INDEX 01 41:40:14
  TRACK 168 AUDIO
    TITLE "00:42:04.57977"
    PERFORMER "Внутренний Предиктор СССР"
    INDEX 01 42:04:43
  TRACK 169 AUDIO
    TITLE "00:42:19.12236"
    PERFORMER "Внутренний Предиктор СССР"
    INDEX 01 42:19:09
  TRACK 170 AUDIO
    TITLE "00:42:34.58213"
    PERFORMER "Внутренний Предиктор СССР"
    INDEX 01 42:34:44
  TRACK 171 AUDIO
    TITLE "00:42:50.70367"
    PERFORMER "Внутренний Предиктор СССР"
    INDEX 01 42:50:53
  TRACK 172 AUDIO
    TITLE "00:43:05.21143"
    PERFORMER "Внутренний Предиктор СССР"
    INDEX 01 43:05:16
  TRACK 173 AUDIO
    TITLE "00:43:23.52726"
    PERFORMER "Внутренний Предиктор СССР"
    INDEX 01 43:23:40
  TRACK 174 AUDIO
    TITLE "00:43:35.95683"
    PERFORMER "Внутренний Предиктор СССР"
    INDEX 01 43:35:72
  TRACK 175 AUDIO
    TITLE "00:43:53.36707"
    PERFORMER "Внутренний Предиктор СССР"
    INDEX 01 43:53:28
  TRACK 176 AUDIO
    TITLE "00:44:07.17823"
    PERFORMER "Внутренний Предиктор СССР"
    INDEX 01 44:07:13
  TRACK 177 AUDIO
    TITLE "00:44:33.05215"
    PERFORMER "Внутренний Предиктор СССР"
    INDEX 01 44:33:04
  TRACK 178 AUDIO
    TITLE "00:44:46.66594"
    PERFORMER "Внутренний Предиктор СССР"
    INDEX 01 44:46:50
  TRACK 179 AUDIO
    TITLE "00:45:05.07465"
    PERFORMER "Внутренний Предиктор СССР"
    INDEX 01 45:05:06
  TRACK 180 AUDIO
    TITLE "00:45:18.18921"
    PERFORMER "Внутренний Предиктор СССР"
    INDEX 01 45:18:14
  TRACK 181 AUDIO
    TITLE "00:45:33.47483"
    PERFORMER "Внутренний Предиктор СССР"
    INDEX 01 45:33:36
  TRACK 182 AUDIO
    TITLE "00:45:46.86803"
    PERFORMER "Внутренний Предиктор СССР"
    INDEX 01 45:46:65
  TRACK 183 AUDIO
    TITLE "00:46:03.95320"
    PERFORMER "Внутренний Предиктор СССР"
    INDEX 01 46:03:71
  TRACK 184 AUDIO
    TITLE "00:46:16.71946"
    PERFORMER "Внутренний Предиктор СССР"
    INDEX 01 46:16:54
  TRACK 185 AUDIO
    TITLE "00:46:36.64907"
    PERFORMER "Внутренний Предиктор СССР"
    INDEX 01 46:36:49
  TRACK 186 AUDIO
    TITLE "00:46:49.60109"
    PERFORMER "Внутренний Предиктор СССР"
    INDEX 01 46:49:45
  TRACK 187 AUDIO
    TITLE "00:47:02.42540"
    PERFORMER "Внутренний Предиктор СССР"
    INDEX 01 47:02:32
  TRACK 188 AUDIO
    TITLE "00:47:16.52680"
    PERFORMER "Внутренний Предиктор СССР"
    INDEX 01 47:16:40
  TRACK 189 AUDIO
    TITLE "00:47:30.93007"
    PERFORMER "Внутренний Предиктор СССР"
    INDEX 01 47:30:70
  TRACK 190 AUDIO
    TITLE "00:47:43.95175"
    PERFORMER "Внутренний Предиктор СССР"
    INDEX 01 47:43:71
  TRACK 191 AUDIO
    TITLE "00:47:57.44943"
    PERFORMER "Внутренний Предиктор СССР"
    INDEX 01 47:57:34
  TRACK 192 AUDIO
    TITLE "00:48:11.91075"
    PERFORMER "Внутренний Предиктор СССР"
    INDEX 01 48:11:68
  TRACK 193 AUDIO
    TITLE "00:48:24.99048"
    PERFORMER "Внутренний Предиктор СССР"
    INDEX 01 48:24:74
  TRACK 194 AUDIO
    TITLE "00:48:40.42703"
    PERFORMER "Внутренний Предиктор СССР"
    INDEX 01 48:40:32
  TRACK 195 AUDIO
    TITLE "00:48:53.34422"
    PERFORMER "Внутренний Предиктор СССР"
    INDEX 01 48:53:26
  TRACK 196 AUDIO
    TITLE "00:49:06.80707"
    PERFORMER "Внутренний Предиктор СССР"
    INDEX 01 49:06:61
  TRACK 197 AUDIO
    TITLE "00:49:22.39456"
    PERFORMER "Внутренний Предиктор СССР"
    INDEX 01 49:22:30
  TRACK 198 AUDIO
    TITLE "00:49:38.20263"
    PERFORMER "Внутренний Предиктор СССР"
    INDEX 01 49:38:15
  TRACK 199 AUDIO
    TITLE "00:49:51.97896"
    PERFORMER "Внутренний Предиктор СССР"
    INDEX 01 49:51:73
  TRACK 200 AUDIO
    TITLE "00:50:08.73905"
    PERFORMER "Внутренний Предиктор СССР"
    INDEX 01 50:08:55
  TRACK 201 AUDIO
    TITLE "00:50:21.24989"
    PERFORMER "Внутренний Предиктор СССР"
    INDEX 01 50:21:19
  TRACK 202 AUDIO
    TITLE "00:50:39.85596"
    PERFORMER "Внутренний Предиктор СССР"
    INDEX 01 50:39:64
  TRACK 203 AUDIO
    TITLE "00:50:54.83973"
    PERFORMER "Внутренний Предиктор СССР"
    INDEX 01 50:54:63
  TRACK 204 AUDIO
    TITLE "00:51:08.95274"
    PERFORMER "Внутренний Предиктор СССР"
    INDEX 01 51:08:71
  TRACK 205 AUDIO
    TITLE "00:51:26.90866"
    PERFORMER "Внутренний Предиктор СССР"
    INDEX 01 51:26:68
  TRACK 206 AUDIO
    TITLE "00:51:39.87229"
    PERFORMER "Внутренний Предиктор СССР"
    INDEX 01 51:39:65
  TRACK 207 AUDIO
    TITLE "00:51:52.78948"
    PERFORMER "Внутренний Предиктор СССР"
    INDEX 01 51:52:59
  TRACK 208 AUDIO
    TITLE "00:52:07.87773"
    PERFORMER "Внутренний Предиктор СССР"
    INDEX 01 52:07:66
